STARTFONT 2.1
FONT -sun-Chelmsford Sans Serif-Normal-R-Normal-SansSerif-20-120-120-120-P-101-WinRoman-0
SIZE 12 120 120
FONTBOUNDINGBOX 21 25 0 -5
COMMENT "Generated by fontforge, http://fontforge.sourceforge.net"
COMMENT "(c)Copyright Sun Microsystems Inc"
STARTPROPERTIES 34
FOUNDRY "sun"
FAMILY_NAME "Chelmsford Sans Serif"
WEIGHT_NAME "Normal"
SLANT "R"
SETWIDTH_NAME "Normal"
ADD_STYLE_NAME "SansSerif"
PIXEL_SIZE 20
POINT_SIZE 120
RESOLUTION_X 120
RESOLUTION_Y 120
SPACING "P"
AVERAGE_WIDTH 101
CHARSET_REGISTRY "WinRoman"
CHARSET_ENCODING "0"
FONTNAME_REGISTRY ""
CHARSET_COLLECTIONS "WinRoman"
FONT_NAME "ChelmsfordSansSerif"
FACE_NAME "Chelmsford Sans Serif"
COPYRIGHT "(c)Copyright Sun Microsystems Inc"
FONT_VERSION "001.000"
FONT_ASCENT 16
FONT_DESCENT 4
UNDERLINE_POSITION -2
UNDERLINE_THICKNESS 1
X_HEIGHT 10
CAP_HEIGHT 14
RAW_ASCENT 800
RAW_DESCENT 200
NORM_SPACE 5
RELATIVE_WEIGHT 40
RELATIVE_SETWIDTH 50
FIGURE_WIDTH 11
AVG_LOWERCASE_WIDTH 96
AVG_UPPERCASE_WIDTH 129
ENDPROPERTIES
CHARS 224
STARTCHAR space
ENCODING 32
SWIDTH 275 0
DWIDTH 5 0
BBX 1 1 4 -5
BITMAP
00
ENDCHAR
STARTCHAR exclam
ENCODING 33
SWIDTH 275 0
DWIDTH 6 0
BBX 2 15 2 0
BITMAP
C0
C0
C0
C0
C0
C0
C0
C0
C0
C0
C0
00
00
C0
C0
ENDCHAR
STARTCHAR quotedbl
ENCODING 34
SWIDTH 350 0
DWIDTH 7 0
BBX 5 4 1 11
BITMAP
D8
D8
D8
D8
ENDCHAR
STARTCHAR numbersign
ENCODING 35
SWIDTH 550 0
DWIDTH 11 0
BBX 11 15 0 0
BITMAP
0C60
0C60
0C60
18C0
18C0
7FE0
18C0
39C0
3180
FFE0
3180
3180
6300
6300
6300
ENDCHAR
STARTCHAR dollar
ENCODING 36
SWIDTH 550 0
DWIDTH 11 0
BBX 10 19 0 -2
BITMAP
0800
0800
1E00
7F00
6980
C980
C800
E800
7C00
3F00
0B80
09C0
C8C0
C8C0
6980
7F80
1E00
0800
0800
ENDCHAR
STARTCHAR percent
ENCODING 37
SWIDTH 875 0
DWIDTH 18 0
BBX 16 16 1 0
BITMAP
3800
7C18
EE18
C630
C660
C660
C6C0
EEDC
7DBE
3B77
0363
0663
0663
0C77
183E
181C
ENDCHAR
STARTCHAR ampersand
ENCODING 38
SWIDTH 675 0
DWIDTH 13 0
BBX 12 15 1 0
BITMAP
0C00
3F00
3300
6180
6180
3300
3700
1C00
7EC0
66C0
C380
C180
63E0
7F60
1C30
ENDCHAR
STARTCHAR quotesingle
ENCODING 39
SWIDTH 225 0
DWIDTH 4 0
BBX 2 6 1 9
BITMAP
C0
C0
C0
C0
C0
C0
ENDCHAR
STARTCHAR parenleft
ENCODING 40
SWIDTH 325 0
DWIDTH 7 0
BBX 5 19 2 -4
BITMAP
18
30
30
60
60
60
C0
C0
C0
C0
C0
C0
C0
60
60
60
30
30
18
ENDCHAR
STARTCHAR parenright
ENCODING 41
SWIDTH 325 0
DWIDTH 7 0
BBX 5 19 0 -4
BITMAP
C0
60
60
30
30
30
18
18
18
18
18
18
18
30
30
30
60
60
C0
ENDCHAR
STARTCHAR asterisk
ENCODING 42
SWIDTH 375 0
DWIDTH 8 0
BBX 8 8 0 7
BITMAP
18
18
DB
FF
18
3C
66
66
ENDCHAR
STARTCHAR plus
ENCODING 43
SWIDTH 575 0
DWIDTH 12 0
BBX 10 11 1 2
BITMAP
0C00
0C00
0C00
0C00
FFC0
FFC0
0C00
0C00
0C00
0C00
0C00
ENDCHAR
STARTCHAR comma
ENCODING 44
SWIDTH 275 0
DWIDTH 5 0
BBX 2 4 2 -2
BITMAP
C0
C0
40
80
ENDCHAR
STARTCHAR hyphen
ENCODING 45
SWIDTH 325 0
DWIDTH 7 0
BBX 5 2 1 6
BITMAP
F8
F8
ENDCHAR
STARTCHAR period
ENCODING 46
SWIDTH 275 0
DWIDTH 5 0
BBX 2 2 2 0
BITMAP
C0
C0
ENDCHAR
STARTCHAR slash
ENCODING 47
SWIDTH 275 0
DWIDTH 6 0
BBX 6 17 0 -2
BITMAP
0C
0C
0C
18
18
18
18
30
30
30
60
60
60
60
C0
C0
C0
ENDCHAR
STARTCHAR zero
ENCODING 48
SWIDTH 550 0
DWIDTH 11 0
BBX 10 15 0 0
BITMAP
1E00
3F00
6180
6180
C0C0
C0C0
C0C0
C0C0
C0C0
C0C0
C0C0
6180
6180
3F00
1E00
ENDCHAR
STARTCHAR one
ENCODING 49
SWIDTH 550 0
DWIDTH 11 0
BBX 5 15 2 0
BITMAP
18
38
F8
F8
18
18
18
18
18
18
18
18
18
18
18
ENDCHAR
STARTCHAR two
ENCODING 50
SWIDTH 550 0
DWIDTH 11 0
BBX 10 15 0 0
BITMAP
3F00
7F80
6180
C0C0
C0C0
C0C0
01C0
0380
0700
1C00
3800
7000
C000
FFC0
FFC0
ENDCHAR
STARTCHAR three
ENCODING 51
SWIDTH 550 0
DWIDTH 11 0
BBX 10 15 0 0
BITMAP
3E00
7F00
6300
C180
0180
0300
1F00
1F80
0180
00C0
00C0
C0C0
E180
7F80
1E00
ENDCHAR
STARTCHAR four
ENCODING 52
SWIDTH 550 0
DWIDTH 11 0
BBX 10 15 0 0
BITMAP
0700
0F00
0F00
1B00
1B00
3300
3300
6300
6300
C300
FFC0
FFC0
0300
0300
0300
ENDCHAR
STARTCHAR five
ENCODING 53
SWIDTH 550 0
DWIDTH 11 0
BBX 10 15 0 0
BITMAP
3F80
7F80
6000
6000
C000
DE00
FF80
E180
00C0
00C0
00C0
C0C0
E180
7F80
1E00
ENDCHAR
STARTCHAR six
ENCODING 54
SWIDTH 550 0
DWIDTH 11 0
BBX 10 15 0 0
BITMAP
0E00
3F80
71C0
60C0
C000
DE00
FF80
E180
C0C0
C0C0
C0C0
C0C0
6180
7F80
1E00
ENDCHAR
STARTCHAR seven
ENCODING 55
SWIDTH 550 0
DWIDTH 11 0
BBX 10 15 0 0
BITMAP
FFC0
FFC0
0180
0180
0300
0300
0600
0600
0C00
0C00
0C00
1800
1800
3000
3000
ENDCHAR
STARTCHAR eight
ENCODING 56
SWIDTH 550 0
DWIDTH 11 0
BBX 10 15 0 0
BITMAP
1E00
7F80
6180
C0C0
C0C0
6180
3F00
7F80
6180
C0C0
C0C0
C0C0
6180
7F80
1E00
ENDCHAR
STARTCHAR nine
ENCODING 57
SWIDTH 550 0
DWIDTH 11 0
BBX 10 15 0 0
BITMAP
3F00
7F80
6180
C0C0
C0C0
C0C0
C0C0
61C0
7FC0
1EC0
00C0
C180
E380
7F00
1C00
ENDCHAR
STARTCHAR colon
ENCODING 58
SWIDTH 275 0
DWIDTH 6 0
BBX 2 10 2 0
BITMAP
C0
C0
00
00
00
00
00
00
C0
C0
ENDCHAR
STARTCHAR semicolon
ENCODING 59
SWIDTH 275 0
DWIDTH 6 0
BBX 2 12 2 -2
BITMAP
C0
C0
00
00
00
00
00
00
C0
C0
40
80
ENDCHAR
STARTCHAR less
ENCODING 60
SWIDTH 575 0
DWIDTH 12 0
BBX 10 10 1 2
BITMAP
00C0
03C0
0F00
3C00
F000
F000
3C00
0F00
03C0
00C0
ENDCHAR
STARTCHAR equal
ENCODING 61
SWIDTH 575 0
DWIDTH 12 0
BBX 10 6 1 4
BITMAP
FFC0
FFC0
0000
0000
FFC0
FFC0
ENDCHAR
STARTCHAR greater
ENCODING 62
SWIDTH 575 0
DWIDTH 12 0
BBX 10 10 1 2
BITMAP
C000
F000
3C00
0F00
03C0
03C0
0F00
3C00
F000
C000
ENDCHAR
STARTCHAR question
ENCODING 63
SWIDTH 550 0
DWIDTH 11 0
BBX 9 15 1 0
BITMAP
1C00
7F00
6300
C180
C180
0180
0300
0300
0600
0C00
0C00
0000
0000
0C00
0C00
ENDCHAR
STARTCHAR at
ENCODING 64
SWIDTH 1000 0
DWIDTH 20 0
BBX 18 17 1 -3
BITMAP
01F000
0FFE00
1C0780
300180
60ECC0
63FCC0
C718C0
C618C0
CC18C0
CC3180
CC7180
67FF00
639C00
300000
1C0600
0FFE00
01F000
ENDCHAR
STARTCHAR A
ENCODING 65
SWIDTH 675 0
DWIDTH 14 0
BBX 13 15 0 0
BITMAP
0700
0700
0D80
0D80
18C0
18C0
18C0
3060
3060
3FE0
7FF0
6030
6030
C018
C018
ENDCHAR
STARTCHAR B
ENCODING 66
SWIDTH 675 0
DWIDTH 13 0
BBX 10 15 1 0
BITMAP
FC00
FF00
C380
C180
C180
C300
FF00
FF80
C180
C0C0
C0C0
C0C0
C1C0
FF80
FE00
ENDCHAR
STARTCHAR C
ENCODING 67
SWIDTH 725 0
DWIDTH 15 0
BBX 12 15 1 0
BITMAP
0F80
3FE0
7070
6030
E030
C000
C000
C000
C000
C000
E000
6030
7070
3FE0
0F80
ENDCHAR
STARTCHAR D
ENCODING 68
SWIDTH 725 0
DWIDTH 14 0
BBX 11 15 1 0
BITMAP
FE00
FF80
C1C0
C0C0
C0E0
C060
C060
C060
C060
C060
C0E0
C0C0
C1C0
FF80
FE00
ENDCHAR
STARTCHAR E
ENCODING 69
SWIDTH 675 0
DWIDTH 13 0
BBX 10 15 1 0
BITMAP
FFC0
FFC0
C000
C000
C000
C000
FF80
FF80
C000
C000
C000
C000
C000
FFC0
FFC0
ENDCHAR
STARTCHAR F
ENCODING 70
SWIDTH 675 0
DWIDTH 12 0
BBX 9 15 1 0
BITMAP
FF80
FF80
C000
C000
C000
C000
FF00
FF00
C000
C000
C000
C000
C000
C000
C000
ENDCHAR
STARTCHAR G
ENCODING 71
SWIDTH 725 0
DWIDTH 15 0
BBX 13 15 0 0
BITMAP
0FC0
3FF0
7038
6018
E018
C000
C000
C0F8
C0F8
C018
E018
6018
7038
3FF8
0FC8
ENDCHAR
STARTCHAR H
ENCODING 72
SWIDTH 725 0
DWIDTH 14 0
BBX 12 15 1 0
BITMAP
C030
C030
C030
C030
C030
C030
FFF0
FFF0
C030
C030
C030
C030
C030
C030
C030
ENDCHAR
STARTCHAR I
ENCODING 73
SWIDTH 250 0
DWIDTH 5 0
BBX 2 15 1 0
BITMAP
C0
C0
C0
C0
C0
C0
C0
C0
C0
C0
C0
C0
C0
C0
C0
ENDCHAR
STARTCHAR J
ENCODING 74
SWIDTH 500 0
DWIDTH 11 0
BBX 9 15 1 0
BITMAP
0180
0180
0180
0180
0180
0180
0180
0180
0180
0180
C180
C180
6300
7F00
1C00
ENDCHAR
STARTCHAR K
ENCODING 75
SWIDTH 650 0
DWIDTH 14 0
BBX 11 15 2 0
BITMAP
C040
C0C0
C180
C300
C600
CC00
DE00
F600
E300
C300
C180
C0C0
C0C0
C060
C060
ENDCHAR
STARTCHAR L
ENCODING 76
SWIDTH 550 0
DWIDTH 11 0
BBX 9 15 1 0
BITMAP
C000
C000
C000
C000
C000
C000
C000
C000
C000
C000
C000
C000
C000
FF80
FF80
ENDCHAR
STARTCHAR M
ENCODING 77
SWIDTH 825 0
DWIDTH 17 0
BBX 14 15 1 0
BITMAP
E01C
E01C
F03C
F03C
F03C
D86C
D86C
D86C
CCCC
CCCC
CCCC
C78C
C78C
C30C
C30C
ENDCHAR
STARTCHAR N
ENCODING 78
SWIDTH 725 0
DWIDTH 14 0
BBX 11 15 1 0
BITMAP
C060
E060
E060
F060
D860
D860
CC60
CE60
C660
C360
C360
C1E0
C0E0
C0E0
C060
ENDCHAR
STARTCHAR O
ENCODING 79
SWIDTH 725 0
DWIDTH 16 0
BBX 13 15 1 0
BITMAP
0F80
3FE0
7070
6030
E038
C018
C018
C018
C018
C018
E038
6030
7070
3FE0
0F80
ENDCHAR
STARTCHAR P
ENCODING 80
SWIDTH 675 0
DWIDTH 13 0
BBX 10 15 1 0
BITMAP
FE00
FF80
C180
C0C0
C0C0
C0C0
C0C0
C180
FF80
FE00
C000
C000
C000
C000
C000
ENDCHAR
STARTCHAR Q
ENCODING 81
SWIDTH 725 0
DWIDTH 16 0
BBX 13 16 1 -1
BITMAP
0F80
3FE0
7070
6030
E038
C018
C018
C018
C018
C018
E338
61B0
70F0
3FE0
0FB0
0010
ENDCHAR
STARTCHAR R
ENCODING 82
SWIDTH 725 0
DWIDTH 13 0
BBX 10 15 1 0
BITMAP
FE00
FF80
C1C0
C0C0
C0C0
C0C0
C180
FF80
FF00
C180
C180
C0C0
C0C0
C0C0
C0C0
ENDCHAR
STARTCHAR S
ENCODING 83
SWIDTH 675 0
DWIDTH 14 0
BBX 11 15 1 0
BITMAP
1E00
7F80
6180
C0C0
C0C0
6000
7C00
1F00
03C0
00C0
C060
C060
60C0
7FC0
1F00
ENDCHAR
STARTCHAR T
ENCODING 84
SWIDTH 600 0
DWIDTH 13 0
BBX 12 15 0 0
BITMAP
FFF0
FFF0
0600
0600
0600
0600
0600
0600
0600
0600
0600
0600
0600
0600
0600
ENDCHAR
STARTCHAR U
ENCODING 85
SWIDTH 725 0
DWIDTH 14 0
BBX 11 15 1 0
BITMAP
C060
C060
C060
C060
C060
C060
C060
C060
C060
C060
C060
C060
E0E0
7FC0
3F80
ENDCHAR
STARTCHAR V
ENCODING 86
SWIDTH 675 0
DWIDTH 14 0
BBX 13 15 0 0
BITMAP
C018
C018
6030
6030
6030
3060
3060
3060
18C0
18C0
18C0
0D80
0D80
0700
0700
ENDCHAR
STARTCHAR W
ENCODING 87
SWIDTH 950 0
DWIDTH 20 0
BBX 19 15 0 0
BITMAP
C04060
C0E060
C0E060
60E0C0
61B0C0
61B0C0
31B180
31B180
331980
1B1B00
1B1B00
1E0F00
0E0E00
0C0600
0C0600
ENDCHAR
STARTCHAR X
ENCODING 88
SWIDTH 675 0
DWIDTH 14 0
BBX 13 15 0 0
BITMAP
E038
6030
3060
18C0
18C0
0D80
0700
0700
0700
0D80
18C0
18C0
3060
6030
E038
ENDCHAR
STARTCHAR Y
ENCODING 89
SWIDTH 650 0
DWIDTH 13 0
BBX 12 15 0 0
BITMAP
E070
6060
30C0
30C0
1980
1980
0F00
0F00
0600
0600
0600
0600
0600
0600
0600
ENDCHAR
STARTCHAR Z
ENCODING 90
SWIDTH 600 0
DWIDTH 12 0
BBX 11 15 0 0
BITMAP
FFE0
FFE0
0060
00C0
0180
0300
0300
0600
0C00
1800
1800
3000
6000
FFE0
FFE0
ENDCHAR
STARTCHAR bracketleft
ENCODING 91
SWIDTH 275 0
DWIDTH 6 0
BBX 4 20 1 -5
BITMAP
F0
F0
C0
C0
C0
C0
C0
C0
C0
C0
C0
C0
C0
C0
C0
C0
C0
C0
F0
F0
ENDCHAR
STARTCHAR backslash
ENCODING 92
SWIDTH 275 0
DWIDTH 6 0
BBX 6 18 0 -3
BITMAP
C0
C0
C0
60
60
60
60
60
30
30
30
18
18
18
18
0C
0C
0C
ENDCHAR
STARTCHAR bracketright
ENCODING 93
SWIDTH 275 0
DWIDTH 6 0
BBX 4 20 1 -5
BITMAP
F0
F0
30
30
30
30
30
30
30
30
30
30
30
30
30
30
30
30
F0
F0
ENDCHAR
STARTCHAR asciicircum
ENCODING 94
SWIDTH 325 0
DWIDTH 7 0
BBX 6 3 0 12
BITMAP
30
78
CC
ENDCHAR
STARTCHAR underscore
ENCODING 95
SWIDTH 550 0
DWIDTH 11 0
BBX 11 1 0 -4
BITMAP
FFE0
ENDCHAR
STARTCHAR grave
ENCODING 96
SWIDTH 325 0
DWIDTH 7 0
BBX 4 3 1 12
BITMAP
C0
60
30
ENDCHAR
STARTCHAR a
ENCODING 97
SWIDTH 550 0
DWIDTH 11 0
BBX 9 11 1 0
BITMAP
1C00
7E00
6700
0300
1F00
7F00
E300
C300
E700
7F80
3980
ENDCHAR
STARTCHAR b
ENCODING 98
SWIDTH 550 0
DWIDTH 11 0
BBX 9 15 1 0
BITMAP
C000
C000
C000
C000
DC00
FF00
E300
C180
C180
C180
C180
C180
E300
FF00
DE00
ENDCHAR
STARTCHAR c
ENCODING 99
SWIDTH 525 0
DWIDTH 10 0
BBX 8 11 1 0
BITMAP
1C
7F
63
C0
C0
C0
C0
C0
63
7F
1C
ENDCHAR
STARTCHAR d
ENCODING 100
SWIDTH 550 0
DWIDTH 11 0
BBX 9 15 1 0
BITMAP
0180
0180
0180
0180
1D80
7F80
6380
C180
C180
C180
C180
C180
6380
7F80
1D80
ENDCHAR
STARTCHAR e
ENCODING 101
SWIDTH 550 0
DWIDTH 11 0
BBX 9 11 1 0
BITMAP
1C00
7F00
6300
C180
FF80
FF80
C000
C000
6180
7F80
1E00
ENDCHAR
STARTCHAR f
ENCODING 102
SWIDTH 275 0
DWIDTH 5 0
BBX 4 15 0 0
BITMAP
30
70
60
60
60
F0
F0
60
60
60
60
60
60
60
60
ENDCHAR
STARTCHAR g
ENCODING 103
SWIDTH 550 0
DWIDTH 11 0
BBX 9 16 1 -5
BITMAP
1D80
7F80
6380
C180
C180
C180
C180
C180
C180
6180
7F80
1D80
0180
C380
FF00
3E00
ENDCHAR
STARTCHAR h
ENCODING 104
SWIDTH 550 0
DWIDTH 11 0
BBX 9 15 1 0
BITMAP
C000
C000
C000
C000
DE00
FF00
E380
C180
C180
C180
C180
C180
C180
C180
C180
ENDCHAR
STARTCHAR i
ENCODING 105
SWIDTH 225 0
DWIDTH 4 0
BBX 2 15 1 0
BITMAP
C0
C0
00
00
C0
C0
C0
C0
C0
C0
C0
C0
C0
C0
C0
ENDCHAR
STARTCHAR j
ENCODING 106
SWIDTH 225 0
DWIDTH 4 0
BBX 3 20 0 -5
BITMAP
60
60
00
00
60
60
60
60
60
60
60
60
60
60
60
60
60
60
E0
C0
ENDCHAR
STARTCHAR k
ENCODING 107
SWIDTH 500 0
DWIDTH 10 0
BBX 8 15 1 0
BITMAP
C0
C0
C0
C0
C3
C6
CC
CC
D8
FC
EC
C6
C6
C3
C3
ENDCHAR
STARTCHAR l
ENCODING 108
SWIDTH 225 0
DWIDTH 4 0
BBX 2 15 1 0
BITMAP
C0
C0
C0
C0
C0
C0
C0
C0
C0
C0
C0
C0
C0
C0
C0
ENDCHAR
STARTCHAR m
ENCODING 109
SWIDTH 825 0
DWIDTH 16 0
BBX 14 11 1 0
BITMAP
DF78
FFFC
E38C
C30C
C30C
C30C
C30C
C30C
C30C
C30C
C30C
ENDCHAR
STARTCHAR n
ENCODING 110
SWIDTH 550 0
DWIDTH 11 0
BBX 9 11 1 0
BITMAP
DE00
FF00
E380
C180
C180
C180
C180
C180
C180
C180
C180
ENDCHAR
STARTCHAR o
ENCODING 111
SWIDTH 575 0
DWIDTH 11 0
BBX 9 11 1 0
BITMAP
1C00
7F00
6300
C180
C180
C180
C180
C180
6300
7F00
1C00
ENDCHAR
STARTCHAR p
ENCODING 112
SWIDTH 550 0
DWIDTH 11 0
BBX 9 16 1 -5
BITMAP
DC00
FF00
E300
C180
C180
C180
C180
C180
E300
FF00
DC00
C000
C000
C000
C000
C000
ENDCHAR
STARTCHAR q
ENCODING 113
SWIDTH 550 0
DWIDTH 11 0
BBX 9 16 1 -5
BITMAP
1D80
7F80
6380
C180
C180
C180
C180
C180
6380
7F80
1D80
0180
0180
0180
0180
0180
ENDCHAR
STARTCHAR r
ENCODING 114
SWIDTH 325 0
DWIDTH 6 0
BBX 5 11 1 0
BITMAP
D8
F8
C0
C0
C0
C0
C0
C0
C0
C0
C0
ENDCHAR
STARTCHAR s
ENCODING 115
SWIDTH 500 0
DWIDTH 10 0
BBX 8 12 1 0
BITMAP
38
7E
C6
C0
70
3C
0E
03
03
C3
FE
3C
ENDCHAR
STARTCHAR t
ENCODING 116
SWIDTH 275 0
DWIDTH 5 0
BBX 4 14 0 0
BITMAP
60
60
60
F0
F0
60
60
60
60
60
60
60
70
30
ENDCHAR
STARTCHAR u
ENCODING 117
SWIDTH 550 0
DWIDTH 11 0
BBX 9 11 1 0
BITMAP
C180
C180
C180
C180
C180
C180
C180
C180
E380
7F80
3D80
ENDCHAR
STARTCHAR v
ENCODING 118
SWIDTH 475 0
DWIDTH 10 0
BBX 10 11 0 0
BITMAP
C0C0
C0C0
6180
6180
6180
3300
3300
1E00
1E00
0C00
0C00
ENDCHAR
STARTCHAR w
ENCODING 119
SWIDTH 725 0
DWIDTH 14 0
BBX 14 11 0 0
BITMAP
C30C
C30C
C30C
6798
6798
6798
34B0
3CF0
3CF0
1860
1860
ENDCHAR
STARTCHAR x
ENCODING 120
SWIDTH 525 0
DWIDTH 10 0
BBX 10 11 0 0
BITMAP
C0C0
6180
7380
3300
1E00
0C00
1E00
3300
7380
6180
C0C0
ENDCHAR
STARTCHAR y
ENCODING 121
SWIDTH 500 0
DWIDTH 10 0
BBX 10 15 0 -4
BITMAP
C0C0
C0C0
6180
6180
6180
3300
3300
1E00
1E00
0C00
0C00
0C00
1800
7800
6000
ENDCHAR
STARTCHAR z
ENCODING 122
SWIDTH 500 0
DWIDTH 10 0
BBX 8 11 1 0
BITMAP
FF
FF
06
0C
0C
18
30
30
60
FF
FF
ENDCHAR
STARTCHAR braceleft
ENCODING 123
SWIDTH 325 0
DWIDTH 7 0
BBX 7 18 0 -3
BITMAP
0E
1E
18
18
18
18
18
38
F0
38
18
18
18
18
18
18
1E
0E
ENDCHAR
STARTCHAR bar
ENCODING 124
SWIDTH 250 0
DWIDTH 5 0
BBX 2 20 2 -5
BITMAP
C0
C0
C0
C0
C0
C0
C0
C0
C0
C0
C0
C0
C0
C0
C0
C0
C0
C0
C0
C0
ENDCHAR
STARTCHAR braceright
ENCODING 125
SWIDTH 325 0
DWIDTH 7 0
BBX 7 18 0 -3
BITMAP
E0
F0
30
30
30
30
30
38
1E
38
30
30
30
30
30
30
F0
E0
ENDCHAR
STARTCHAR asciitilde
ENCODING 126
SWIDTH 325 0
DWIDTH 7 0
BBX 7 2 0 13
BITMAP
76
DC
ENDCHAR
STARTCHAR uni007F
ENCODING 127
SWIDTH 975 0
DWIDTH 21 0
BBX 21 20 0 -5
BITMAP
F1E3C0
F1E3C0
F1E3C0
F1E3C0
F1E3C0
0E1C38
0E1C38
0E1C38
0E1C38
0E1C38
F1E3C0
F1E3C0
F1E3C0
F1E3C0
F1E3C0
0E1C38
0E1C38
0E1C38
0E1C38
0E1C38
ENDCHAR
STARTCHAR Euro
ENCODING 128
SWIDTH 275 0
DWIDTH 6 0
BBX 2 2 2 0
BITMAP
C0
C0
ENDCHAR
STARTCHAR NameMe.129
ENCODING 129
SWIDTH 275 0
DWIDTH 6 0
BBX 2 2 2 0
BITMAP
C0
C0
ENDCHAR
STARTCHAR quotesinglbase
ENCODING 130
SWIDTH 275 0
DWIDTH 6 0
BBX 2 2 2 0
BITMAP
C0
C0
ENDCHAR
STARTCHAR florin
ENCODING 131
SWIDTH 275 0
DWIDTH 6 0
BBX 2 2 2 0
BITMAP
C0
C0
ENDCHAR
STARTCHAR quotedblbase
ENCODING 132
SWIDTH 275 0
DWIDTH 6 0
BBX 2 2 2 0
BITMAP
C0
C0
ENDCHAR
STARTCHAR ellipsis
ENCODING 133
SWIDTH 275 0
DWIDTH 6 0
BBX 2 2 2 0
BITMAP
C0
C0
ENDCHAR
STARTCHAR dagger
ENCODING 134
SWIDTH 275 0
DWIDTH 6 0
BBX 2 2 2 0
BITMAP
C0
C0
ENDCHAR
STARTCHAR daggerdbl
ENCODING 135
SWIDTH 275 0
DWIDTH 6 0
BBX 2 2 2 0
BITMAP
C0
C0
ENDCHAR
STARTCHAR circumflex
ENCODING 136
SWIDTH 275 0
DWIDTH 6 0
BBX 2 2 2 0
BITMAP
C0
C0
ENDCHAR
STARTCHAR perthousand
ENCODING 137
SWIDTH 275 0
DWIDTH 6 0
BBX 2 2 2 0
BITMAP
C0
C0
ENDCHAR
STARTCHAR Scaron
ENCODING 138
SWIDTH 275 0
DWIDTH 6 0
BBX 2 2 2 0
BITMAP
C0
C0
ENDCHAR
STARTCHAR guilsinglleft
ENCODING 139
SWIDTH 275 0
DWIDTH 6 0
BBX 2 2 2 0
BITMAP
C0
C0
ENDCHAR
STARTCHAR OE
ENCODING 140
SWIDTH 275 0
DWIDTH 6 0
BBX 2 2 2 0
BITMAP
C0
C0
ENDCHAR
STARTCHAR NameMe.141
ENCODING 141
SWIDTH 275 0
DWIDTH 6 0
BBX 2 2 2 0
BITMAP
C0
C0
ENDCHAR
STARTCHAR Zcaron
ENCODING 142
SWIDTH 275 0
DWIDTH 6 0
BBX 2 2 2 0
BITMAP
C0
C0
ENDCHAR
STARTCHAR NameMe.143
ENCODING 143
SWIDTH 275 0
DWIDTH 6 0
BBX 2 2 2 0
BITMAP
C0
C0
ENDCHAR
STARTCHAR NameMe.144
ENCODING 144
SWIDTH 275 0
DWIDTH 6 0
BBX 2 2 2 0
BITMAP
C0
C0
ENDCHAR
STARTCHAR quoteleft
ENCODING 145
SWIDTH 225 0
DWIDTH 5 0
BBX 2 4 2 12
BITMAP
40
80
C0
C0
ENDCHAR
STARTCHAR quoteright
ENCODING 146
SWIDTH 225 0
DWIDTH 5 0
BBX 2 4 1 12
BITMAP
C0
C0
40
80
ENDCHAR
STARTCHAR quotedblleft
ENCODING 147
SWIDTH 275 0
DWIDTH 6 0
BBX 2 2 2 0
BITMAP
C0
C0
ENDCHAR
STARTCHAR quotedblright
ENCODING 148
SWIDTH 275 0
DWIDTH 6 0
BBX 2 2 2 0
BITMAP
C0
C0
ENDCHAR
STARTCHAR bullet
ENCODING 149
SWIDTH 275 0
DWIDTH 6 0
BBX 2 2 2 0
BITMAP
C0
C0
ENDCHAR
STARTCHAR endash
ENCODING 150
SWIDTH 275 0
DWIDTH 6 0
BBX 2 2 2 0
BITMAP
C0
C0
ENDCHAR
STARTCHAR emdash
ENCODING 151
SWIDTH 275 0
DWIDTH 6 0
BBX 2 2 2 0
BITMAP
C0
C0
ENDCHAR
STARTCHAR tilde
ENCODING 152
SWIDTH 275 0
DWIDTH 6 0
BBX 2 2 2 0
BITMAP
C0
C0
ENDCHAR
STARTCHAR trademark
ENCODING 153
SWIDTH 275 0
DWIDTH 6 0
BBX 2 2 2 0
BITMAP
C0
C0
ENDCHAR
STARTCHAR scaron
ENCODING 154
SWIDTH 275 0
DWIDTH 6 0
BBX 2 2 2 0
BITMAP
C0
C0
ENDCHAR
STARTCHAR guilsinglright
ENCODING 155
SWIDTH 275 0
DWIDTH 6 0
BBX 2 2 2 0
BITMAP
C0
C0
ENDCHAR
STARTCHAR oe
ENCODING 156
SWIDTH 275 0
DWIDTH 6 0
BBX 2 2 2 0
BITMAP
C0
C0
ENDCHAR
STARTCHAR NameMe.157
ENCODING 157
SWIDTH 275 0
DWIDTH 6 0
BBX 2 2 2 0
BITMAP
C0
C0
ENDCHAR
STARTCHAR zcaron
ENCODING 158
SWIDTH 275 0
DWIDTH 6 0
BBX 2 2 2 0
BITMAP
C0
C0
ENDCHAR
STARTCHAR Ydieresis
ENCODING 159
SWIDTH 275 0
DWIDTH 6 0
BBX 2 2 2 0
BITMAP
C0
C0
ENDCHAR
STARTCHAR uni00A0
ENCODING 160
SWIDTH 275 0
DWIDTH 5 0
BBX 1 1 4 -5
BITMAP
00
ENDCHAR
STARTCHAR exclamdown
ENCODING 161
SWIDTH 325 0
DWIDTH 7 0
BBX 2 14 2 1
BITMAP
C0
C0
00
00
C0
C0
C0
C0
C0
C0
C0
C0
C0
C0
ENDCHAR
STARTCHAR cent
ENCODING 162
SWIDTH 550 0
DWIDTH 11 0
BBX 9 15 0 -2
BITMAP
0200
0200
1E00
7F80
6580
C400
C400
C400
C800
C800
6980
7F80
1E00
1000
1000
ENDCHAR
STARTCHAR sterling
ENCODING 163
SWIDTH 550 0
DWIDTH 11 0
BBX 10 15 0 0
BITMAP
1F00
7F80
60C0
C0C0
C000
C000
6000
FE00
3000
6000
6000
6000
6E40
FFC0
7180
ENDCHAR
STARTCHAR currency
ENCODING 164
SWIDTH 550 0
DWIDTH 11 0
BBX 10 10 0 5
BITMAP
C0C0
7F80
3300
6180
6180
6180
6180
3300
7F80
C0C0
ENDCHAR
STARTCHAR yen
ENCODING 165
SWIDTH 550 0
DWIDTH 11 0
BBX 10 15 0 0
BITMAP
C0C0
C0C0
61C0
6180
3300
3300
FFC0
1E00
1E00
FFC0
0C00
0C00
0C00
0C00
0C00
ENDCHAR
STARTCHAR brokenbar
ENCODING 166
SWIDTH 250 0
DWIDTH 5 0
BBX 2 20 1 -5
BITMAP
C0
C0
C0
C0
C0
C0
C0
C0
00
00
00
C0
C0
C0
C0
C0
C0
C0
C0
C0
ENDCHAR
STARTCHAR section
ENCODING 167
SWIDTH 550 0
DWIDTH 11 0
BBX 9 16 1 -1
BITMAP
1C00
3F00
6300
6100
3000
7E00
CF00
C300
6180
7980
1F00
0600
4300
6300
7E00
1C00
ENDCHAR
STARTCHAR dieresis
ENCODING 168
SWIDTH 325 0
DWIDTH 7 0
BBX 6 2 1 13
BITMAP
CC
CC
ENDCHAR
STARTCHAR copyright
ENCODING 169
SWIDTH 725 0
DWIDTH 15 0
BBX 14 14 1 0
BITMAP
0780
1FE0
3870
6018
6798
CCCC
CC0C
CC0C
CCCC
6798
6018
3870
1FE0
0780
ENDCHAR
STARTCHAR ordfeminine
ENCODING 170
SWIDTH 375 0
DWIDTH 7 0
BBX 6 9 0 6
BITMAP
70
98
78
D8
D8
6C
00
FC
FC
ENDCHAR
STARTCHAR guillemotleft
ENCODING 171
SWIDTH 525 0
DWIDTH 8 0
BBX 7 7 0 4
BITMAP
22
66
CC
88
CC
66
22
ENDCHAR
STARTCHAR logicalnot
ENCODING 172
SWIDTH 575 0
DWIDTH 11 0
BBX 9 5 1 3
BITMAP
FF80
FF80
0180
0180
0180
ENDCHAR
STARTCHAR uni00AD
ENCODING 173
SWIDTH 325 0
DWIDTH 7 0
BBX 5 2 1 4
BITMAP
F8
F8
ENDCHAR
STARTCHAR registered
ENCODING 174
SWIDTH 725 0
DWIDTH 15 0
BBX 14 14 1 0
BITMAP
0780
1FE0
3870
6018
6F98
CCCC
CCCC
CF8C
CCCC
6CD8
6018
3870
1FE0
0780
ENDCHAR
STARTCHAR macron
ENCODING 175
SWIDTH 550 0
DWIDTH 11 0
BBX 11 1 0 17
BITMAP
FFE0
ENDCHAR
STARTCHAR degree
ENCODING 176
SWIDTH 400 0
DWIDTH 8 0
BBX 6 6 1 9
BITMAP
78
CC
CC
CC
CC
78
ENDCHAR
STARTCHAR plusminus
ENCODING 177
SWIDTH 575 0
DWIDTH 12 0
BBX 10 13 1 0
BITMAP
0C00
0C00
0C00
0C00
FFC0
FFC0
0C00
0C00
0C00
0C00
0000
FFC0
FFC0
ENDCHAR
STARTCHAR uni00B2
ENCODING 178
SWIDTH 325 0
DWIDTH 7 0
BBX 6 9 0 6
BITMAP
78
CC
CC
0C
18
30
60
C0
FC
ENDCHAR
STARTCHAR uni00B3
ENCODING 179
SWIDTH 325 0
DWIDTH 7 0
BBX 6 9 0 6
BITMAP
78
EC
0C
0C
38
0C
0C
EC
78
ENDCHAR
STARTCHAR acute
ENCODING 180
SWIDTH 325 0
DWIDTH 7 0
BBX 4 3 1 12
BITMAP
30
60
C0
ENDCHAR
STARTCHAR mu
ENCODING 181
SWIDTH 550 0
DWIDTH 11 0
BBX 11 16 0 -5
BITMAP
1860
1860
1860
1860
1860
30C0
30C0
30C0
39C0
3FE0
6EC0
6000
6000
6000
C000
C000
ENDCHAR
STARTCHAR paragraph
ENCODING 182
SWIDTH 525 0
DWIDTH 11 0
BBX 9 15 1 0
BITMAP
3F80
7900
F900
F900
F900
7900
3900
0900
0900
0900
0900
0900
0900
0900
0900
ENDCHAR
STARTCHAR periodcentered
ENCODING 183
SWIDTH 275 0
DWIDTH 5 0
BBX 2 2 1 6
BITMAP
C0
C0
ENDCHAR
STARTCHAR cedilla
ENCODING 184
SWIDTH 325 0
DWIDTH 7 0
BBX 5 5 1 -5
BITMAP
20
30
18
98
70
ENDCHAR
STARTCHAR uni00B9
ENCODING 185
SWIDTH 325 0
DWIDTH 7 0
BBX 4 9 1 6
BITMAP
30
F0
30
30
30
30
30
30
30
ENDCHAR
STARTCHAR ordmasculine
ENCODING 186
SWIDTH 375 0
DWIDTH 7 0
BBX 6 9 1 6
BITMAP
78
CC
CC
CC
CC
78
00
FC
FC
ENDCHAR
STARTCHAR guillemotright
ENCODING 187
SWIDTH 525 0
DWIDTH 11 0
BBX 7 7 2 2
BITMAP
88
CC
66
22
66
CC
88
ENDCHAR
STARTCHAR onequarter
ENCODING 188
SWIDTH 825 0
DWIDTH 17 0
BBX 15 15 1 0
BITMAP
3030
F060
3060
30C0
30C0
3180
318C
331C
333C
066C
06CC
0CFE
0C0C
180C
180C
ENDCHAR
STARTCHAR onehalf
ENCODING 189
SWIDTH 825 0
DWIDTH 17 0
BBX 16 15 1 0
BITMAP
3030
F060
3060
30C0
30C0
3180
319E
3333
3333
0603
0606
0C0C
0C18
1830
183F
ENDCHAR
STARTCHAR threequarters
ENCODING 190
SWIDTH 825 0
DWIDTH 17 0
BBX 16 15 0 0
BITMAP
7818
EC30
0C30
0C60
3860
0CC0
0CC6
ED8E
799E
0336
0366
067F
0606
0C06
0C06
ENDCHAR
STARTCHAR questiondown
ENCODING 191
SWIDTH 550 0
DWIDTH 12 0
BBX 9 15 1 0
BITMAP
1800
1800
0000
0000
1800
1800
3000
6000
6000
C000
C180
C180
6300
7F00
1C00
ENDCHAR
STARTCHAR Agrave
ENCODING 192
SWIDTH 675 0
DWIDTH 14 0
BBX 13 20 0 0
BITMAP
1800
0C00
0600
0000
0000
0700
0700
0D80
0D80
18C0
18C0
18C0
3060
3060
3FE0
7FF0
6030
6030
C018
C018
ENDCHAR
STARTCHAR Aacute
ENCODING 193
SWIDTH 675 0
DWIDTH 14 0
BBX 13 20 0 0
BITMAP
00C0
0180
0300
0000
0000
0700
0700
0D80
0D80
18C0
18C0
18C0
3060
3060
3FE0
7FF0
6030
6030
C018
C018
ENDCHAR
STARTCHAR Acircumflex
ENCODING 194
SWIDTH 675 0
DWIDTH 14 0
BBX 13 20 0 0
BITMAP
0300
0780
0CC0
0000
0000
0700
0700
0D80
0D80
18C0
18C0
18C0
3060
3060
3FE0
7FF0
6030
6030
C018
C018
ENDCHAR
STARTCHAR Atilde
ENCODING 195
SWIDTH 675 0
DWIDTH 14 0
BBX 13 20 0 0
BITMAP
0EC0
1B80
0000
0000
0000
0700
0700
0D80
0D80
18C0
18C0
18C0
3060
3060
3FE0
7FF0
6030
6030
C018
C018
ENDCHAR
STARTCHAR Adieresis
ENCODING 196
SWIDTH 675 0
DWIDTH 14 0
BBX 13 19 0 0
BITMAP
0CC0
0CC0
0000
0000
0700
0700
0D80
0D80
18C0
18C0
18C0
3060
3060
3FE0
7FF0
6030
6030
C018
C018
ENDCHAR
STARTCHAR Aring
ENCODING 197
SWIDTH 675 0
DWIDTH 14 0
BBX 13 20 0 0
BITMAP
0700
0D80
0D80
0700
0000
0700
0700
0D80
0D80
18C0
18C0
18C0
3060
3060
3FE0
7FF0
6030
6030
C018
C018
ENDCHAR
STARTCHAR AE
ENCODING 198
SWIDTH 1000 0
DWIDTH 21 0
BBX 19 15 1 0
BITMAP
03FFE0
03FFE0
066000
066000
0C6000
0C6000
187FC0
187FC0
1FE000
3FE000
306000
606000
606000
C07FE0
C07FE0
ENDCHAR
STARTCHAR Ccedilla
ENCODING 199
SWIDTH 725 0
DWIDTH 15 0
BBX 12 20 1 -5
BITMAP
0F80
3FE0
7070
6030
E030
C000
C000
C000
C000
C000
E000
6030
7070
3FE0
0F80
0200
0300
0180
0980
0700
ENDCHAR
STARTCHAR Egrave
ENCODING 200
SWIDTH 675 0
DWIDTH 13 0
BBX 10 20 1 0
BITMAP
1800
0C00
0600
0000
0000
FFC0
FFC0
C000
C000
C000
C000
FF80
FF80
C000
C000
C000
C000
C000
FFC0
FFC0
ENDCHAR
STARTCHAR Eacute
ENCODING 201
SWIDTH 675 0
DWIDTH 13 0
BBX 10 20 1 0
BITMAP
0300
0600
0C00
0000
0000
FFC0
FFC0
C000
C000
C000
C000
FF80
FF80
C000
C000
C000
C000
C000
FFC0
FFC0
ENDCHAR
STARTCHAR Ecircumflex
ENCODING 202
SWIDTH 675 0
DWIDTH 13 0
BBX 10 20 1 0
BITMAP
0E00
1B00
3180
0000
0000
FFC0
FFC0
C000
C000
C000
C000
FF80
FF80
C000
C000
C000
C000
C000
FFC0
FFC0
ENDCHAR
STARTCHAR Edieresis
ENCODING 203
SWIDTH 675 0
DWIDTH 13 0
BBX 10 19 1 0
BITMAP
3300
3300
0000
0000
FFC0
FFC0
C000
C000
C000
C000
FF80
FF80
C000
C000
C000
C000
C000
FFC0
FFC0
ENDCHAR
STARTCHAR Igrave
ENCODING 204
SWIDTH 250 0
DWIDTH 5 0
BBX 4 20 0 0
BITMAP
C0
60
30
00
00
30
30
30
30
30
30
30
30
30
30
30
30
30
30
30
ENDCHAR
STARTCHAR Iacute
ENCODING 205
SWIDTH 250 0
DWIDTH 5 0
BBX 4 20 1 0
BITMAP
30
60
C0
00
00
60
60
60
60
60
60
60
60
60
60
60
60
60
60
60
ENDCHAR
STARTCHAR Icircumflex
ENCODING 206
SWIDTH 250 0
DWIDTH 5 0
BBX 5 20 0 0
BITMAP
20
50
D8
00
00
30
30
30
30
30
30
30
30
30
30
30
30
30
30
30
ENDCHAR
STARTCHAR Idieresis
ENCODING 207
SWIDTH 250 0
DWIDTH 5 0
BBX 5 19 0 0
BITMAP
D8
D8
00
00
30
30
30
30
30
30
30
30
30
30
30
30
30
30
30
ENDCHAR
STARTCHAR Eth
ENCODING 208
SWIDTH 725 0
DWIDTH 14 0
BBX 13 15 0 0
BITMAP
3F80
3FE0
3070
3030
3038
3018
FE18
FE18
3018
3018
3038
3030
3070
3FE0
3F80
ENDCHAR
STARTCHAR Ntilde
ENCODING 209
SWIDTH 725 0
DWIDTH 14 0
BBX 11 19 1 0
BITMAP
1D80
3700
0000
0000
C060
E060
E060
F060
D860
D860
CC60
CE60
C660
C360
C360
C1E0
C0E0
C0E0
C060
ENDCHAR
STARTCHAR Ograve
ENCODING 210
SWIDTH 775 0
DWIDTH 16 0
BBX 13 20 1 0
BITMAP
1800
0C00
0600
0000
0000
0F80
3FE0
7070
6030
E038
C018
C018
C018
C018
C018
E038
6030
7070
3FE0
0F80
ENDCHAR
STARTCHAR Oacute
ENCODING 211
SWIDTH 775 0
DWIDTH 16 0
BBX 13 20 1 0
BITMAP
00C0
0180
0300
0000
0000
0F80
3FE0
7070
6030
E038
C018
C018
C018
C018
C018
E038
6030
7070
3FE0
0F80
ENDCHAR
STARTCHAR Ocircumflex
ENCODING 212
SWIDTH 775 0
DWIDTH 16 0
BBX 13 20 1 0
BITMAP
0300
0780
0CC0
0000
0000
0F80
3FE0
7070
6030
E038
C018
C018
C018
C018
C018
E038
6030
7070
3FE0
0F80
ENDCHAR
STARTCHAR Otilde
ENCODING 213
SWIDTH 775 0
DWIDTH 16 0
BBX 13 19 1 0
BITMAP
0EC0
1B80
0000
0000
0F80
3FE0
7070
6030
E038
C018
C018
C018
C018
C018
E038
6030
7070
3FE0
0F80
ENDCHAR
STARTCHAR Odieresis
ENCODING 214
SWIDTH 775 0
DWIDTH 16 0
BBX 13 19 1 0
BITMAP
0CC0
0CC0
0000
0000
0F80
3FE0
7070
6030
E038
C018
C018
C018
C018
C018
E038
6030
7070
3FE0
0F80
ENDCHAR
STARTCHAR multiply
ENCODING 215
SWIDTH 575 0
DWIDTH 11 0
BBX 10 10 0 3
BITMAP
C0C0
6180
3300
1E00
0C00
0C00
1E00
3300
6180
C0C0
ENDCHAR
STARTCHAR Oslash
ENCODING 216
SWIDTH 775 0
DWIDTH 16 0
BBX 13 15 1 0
BITMAP
0F88
3FE8
7070
6030
E078
C098
C118
C218
C418
C818
F038
6030
7070
BFE0
8F80
ENDCHAR
STARTCHAR Ugrave
ENCODING 217
SWIDTH 725 0
DWIDTH 14 0
BBX 11 20 1 0
BITMAP
1800
0C00
0600
0000
0000
C060
C060
C060
C060
C060
C060
C060
C060
C060
C060
C060
C060
60C0
7FC0
1F00
ENDCHAR
STARTCHAR Uacute
ENCODING 218
SWIDTH 725 0
DWIDTH 14 0
BBX 11 20 1 0
BITMAP
0300
0600
0C00
0000
0000
C060
C060
C060
C060
C060
C060
C060
C060
C060
C060
C060
C060
E0E0
7FC0
3F80
ENDCHAR
STARTCHAR Ucircumflex
ENCODING 219
SWIDTH 725 0
DWIDTH 14 0
BBX 11 20 1 0
BITMAP
0600
0F00
1980
0000
0000
C060
C060
C060
C060
C060
C060
C060
C060
C060
C060
C060
C060
60C0
7FC0
1F00
ENDCHAR
STARTCHAR Udieresis
ENCODING 220
SWIDTH 725 0
DWIDTH 14 0
BBX 11 19 1 0
BITMAP
1980
1980
0000
0000
C060
C060
C060
C060
C060
C060
C060
C060
C060
C060
C060
C060
E0E0
7FC0
3F80
ENDCHAR
STARTCHAR Yacute
ENCODING 221
SWIDTH 650 0
DWIDTH 13 0
BBX 12 20 0 0
BITMAP
0180
0300
0600
0000
0000
E070
6060
30C0
30C0
1980
1980
0F00
0F00
0600
0600
0600
0600
0600
0600
0600
ENDCHAR
STARTCHAR Thorn
ENCODING 222
SWIDTH 675 0
DWIDTH 11 0
BBX 9 15 1 0
BITMAP
C000
C000
C000
FC00
FF00
C300
C180
C180
C180
C300
FF00
FC00
C000
C000
C000
ENDCHAR
STARTCHAR germandbls
ENCODING 223
SWIDTH 575 0
DWIDTH 11 0
BBX 10 15 1 0
BITMAP
1C00
7F00
6300
C180
C180
C180
C700
C780
C180
C0C0
C0C0
C0C0
C180
DF80
DE00
ENDCHAR
STARTCHAR agrave
ENCODING 224
SWIDTH 550 0
DWIDTH 11 0
BBX 9 16 1 0
BITMAP
3000
1800
0C00
0000
0000
1C00
7E00
6700
0300
1F00
7F00
E300
C300
E700
7F80
3980
ENDCHAR
STARTCHAR aacute
ENCODING 225
SWIDTH 550 0
DWIDTH 11 0
BBX 9 16 1 0
BITMAP
0600
0C00
1800
0000
0000
1C00
7E00
6700
0300
1F00
7F00
E300
C300
E700
7F80
3980
ENDCHAR
STARTCHAR acircumflex
ENCODING 226
SWIDTH 550 0
DWIDTH 11 0
BBX 9 16 1 0
BITMAP
1800
3C00
6600
0000
0000
1C00
7E00
6700
0300
1F00
7F00
E300
C300
E700
7F80
3980
ENDCHAR
STARTCHAR atilde
ENCODING 227
SWIDTH 550 0
DWIDTH 11 0
BBX 9 15 1 0
BITMAP
3B00
6E00
0000
0000
1C00
7E00
6700
0300
1F00
7F00
E300
C300
E700
7F80
3980
ENDCHAR
STARTCHAR adieresis
ENCODING 228
SWIDTH 550 0
DWIDTH 11 0
BBX 9 15 1 0
BITMAP
6600
6600
0000
0000
1C00
7E00
6700
0300
1F00
7F00
E300
C300
E700
7F80
3980
ENDCHAR
STARTCHAR aring
ENCODING 229
SWIDTH 550 0
DWIDTH 11 0
BBX 9 17 1 0
BITMAP
1C00
3600
3600
1C00
0000
0000
1C00
7E00
6700
0300
1F00
7F00
E300
C300
E700
7F80
3980
ENDCHAR
STARTCHAR ae
ENCODING 230
SWIDTH 900 0
DWIDTH 17 0
BBX 15 11 1 0
BITMAP
1C70
7FFC
678C
0306
1FFE
7FFE
E300
C300
E786
7FFE
3878
ENDCHAR
STARTCHAR ccedilla
ENCODING 231
SWIDTH 525 0
DWIDTH 10 0
BBX 8 16 1 -5
BITMAP
1C
7F
63
C0
C0
C0
C0
C0
63
7F
1C
08
0C
06
26
1C
ENDCHAR
STARTCHAR egrave
ENCODING 232
SWIDTH 550 0
DWIDTH 11 0
BBX 9 16 1 0
BITMAP
3000
1800
0C00
0000
0000
1C00
7F00
6300
C180
FF80
FF80
C000
C000
6180
7F80
1E00
ENDCHAR
STARTCHAR eacute
ENCODING 233
SWIDTH 550 0
DWIDTH 11 0
BBX 9 16 1 0
BITMAP
0600
0C00
1800
0000
0000
1C00
7F00
6300
C180
FF80
FF80
C000
C000
6180
7F80
1E00
ENDCHAR
STARTCHAR ecircumflex
ENCODING 234
SWIDTH 550 0
DWIDTH 11 0
BBX 9 16 1 0
BITMAP
0C00
1E00
3300
0000
0000
1C00
7F00
6300
C180
FF80
FF80
C000
C000
6180
7F80
1E00
ENDCHAR
STARTCHAR edieresis
ENCODING 235
SWIDTH 550 0
DWIDTH 11 0
BBX 9 15 1 0
BITMAP
3600
3600
0000
0000
1C00
7F00
6300
C180
FF80
FF80
C000
C000
6180
7F80
1E00
ENDCHAR
STARTCHAR igrave
ENCODING 236
SWIDTH 225 0
DWIDTH 4 0
BBX 4 16 0 0
BITMAP
C0
60
30
00
00
60
60
60
60
60
60
60
60
60
60
60
ENDCHAR
STARTCHAR iacute
ENCODING 237
SWIDTH 225 0
DWIDTH 4 0
BBX 4 16 0 0
BITMAP
30
60
C0
00
00
60
60
60
60
60
60
60
60
60
60
60
ENDCHAR
STARTCHAR icircumflex
ENCODING 238
SWIDTH 225 0
DWIDTH 4 0
BBX 4 16 0 0
BITMAP
60
F0
90
00
00
60
60
60
60
60
60
60
60
60
60
60
ENDCHAR
STARTCHAR idieresis
ENCODING 239
SWIDTH 225 0
DWIDTH 4 0
BBX 3 15 1 0
BITMAP
A0
A0
00
00
C0
C0
C0
C0
C0
C0
C0
C0
C0
C0
C0
ENDCHAR
STARTCHAR eth
ENCODING 240
SWIDTH 550 0
DWIDTH 11 0
BBX 10 15 0 0
BITMAP
C200
7C00
3800
CC00
1E00
7F80
6180
C0C0
C0C0
C0C0
C0C0
C0C0
6180
7F80
1E00
ENDCHAR
STARTCHAR ntilde
ENCODING 241
SWIDTH 550 0
DWIDTH 11 0
BBX 9 15 1 0
BITMAP
3B00
6E00
0000
0000
DE00
FF00
E380
C180
C180
C180
C180
C180
C180
C180
C180
ENDCHAR
STARTCHAR ograve
ENCODING 242
SWIDTH 575 0
DWIDTH 11 0
BBX 9 16 1 0
BITMAP
3000
1800
0C00
0000
0000
1C00
7F00
6300
C180
C180
C180
C180
C180
6300
7F00
1C00
ENDCHAR
STARTCHAR oacute
ENCODING 243
SWIDTH 575 0
DWIDTH 11 0
BBX 9 16 1 0
BITMAP
0600
0C00
1800
0000
0000
1C00
7F00
6300
C180
C180
C180
C180
C180
6300
7F00
1C00
ENDCHAR
STARTCHAR ocircumflex
ENCODING 244
SWIDTH 575 0
DWIDTH 11 0
BBX 9 16 1 0
BITMAP
0C00
1E00
3300
0000
0000
1C00
7F00
6300
C180
C180
C180
C180
C180
6300
7F00
1C00
ENDCHAR
STARTCHAR otilde
ENCODING 245
SWIDTH 575 0
DWIDTH 11 0
BBX 9 15 1 0
BITMAP
3B00
6E00
0000
0000
1C00
7F00
6300
C180
C180
C180
C180
C180
6300
7F00
1C00
ENDCHAR
STARTCHAR odieresis
ENCODING 246
SWIDTH 575 0
DWIDTH 11 0
BBX 9 15 1 0
BITMAP
3300
3300
0000
0000
1C00
7F00
6300
C180
C180
C180
C180
C180
6300
7F00
1C00
ENDCHAR
STARTCHAR divide
ENCODING 247
SWIDTH 575 0
DWIDTH 12 0
BBX 10 10 1 2
BITMAP
0C00
0C00
0000
0000
FFC0
FFC0
0000
0000
0C00
0C00
ENDCHAR
STARTCHAR oslash
ENCODING 248
SWIDTH 575 0
DWIDTH 11 0
BBX 9 11 1 0
BITMAP
1C80
7F00
6300
C580
C580
C980
D180
D180
6300
7F00
9C00
ENDCHAR
STARTCHAR ugrave
ENCODING 249
SWIDTH 550 0
DWIDTH 11 0
BBX 9 16 1 0
BITMAP
3000
1800
0C00
0000
0000
C180
C180
C180
C180
C180
C180
C180
C180
E380
7F80
3D80
ENDCHAR
STARTCHAR uacute
ENCODING 250
SWIDTH 550 0
DWIDTH 11 0
BBX 9 16 1 0
BITMAP
0300
0600
0C00
0000
0000
C180
C180
C180
C180
C180
C180
C180
C180
E380
7F80
3D80
ENDCHAR
STARTCHAR ucircumflex
ENCODING 251
SWIDTH 550 0
DWIDTH 11 0
BBX 9 16 1 0
BITMAP
0C00
1E00
3300
0000
0000
C180
C180
C180
C180
C180
C180
C180
C180
E380
7F80
3D80
ENDCHAR
STARTCHAR udieresis
ENCODING 252
SWIDTH 550 0
DWIDTH 11 0
BBX 9 15 1 0
BITMAP
3300
3300
0000
0000
C180
C180
C180
C180
C180
C180
C180
C180
E380
7F80
3D80
ENDCHAR
STARTCHAR yacute
ENCODING 253
SWIDTH 500 0
DWIDTH 10 0
BBX 10 20 0 -4
BITMAP
0300
0600
0C00
0000
0000
C0C0
C0C0
6180
6180
6180
3300
3300
1E00
1E00
0C00
0C00
0C00
1800
7800
6000
ENDCHAR
STARTCHAR thorn
ENCODING 254
SWIDTH 550 0
DWIDTH 11 0
BBX 9 21 1 -5
BITMAP
C000
C000
C000
C000
C000
DC00
FF00
E300
C180
C180
C180
C180
C180
E300
FF00
DC00
C000
C000
C000
C000
C000
ENDCHAR
STARTCHAR ydieresis
ENCODING 255
SWIDTH 500 0
DWIDTH 10 0
BBX 10 19 0 -4
BITMAP
3300
3300
0000
0000
C0C0
C0C0
6180
6180
6180
3300
3300
1E00
1E00
0C00
0C00
0C00
1800
7800
6000
ENDCHAR
ENDFONT
